<?xml version="1.0" encoding="UTF-8" standalone="no"?>
<!-- Created with Inkscape (http://www.inkscape.org/) -->

<svg
   xmlns:dc="http://purl.org/dc/elements/1.1/"
   xmlns:cc="http://creativecommons.org/ns#"
   xmlns:rdf="http://www.w3.org/1999/02/22-rdf-syntax-ns#"
   xmlns:svg="http://www.w3.org/2000/svg"
   xmlns="http://www.w3.org/2000/svg"
   xmlns:sodipodi="http://sodipodi.sourceforge.net/DTD/sodipodi-0.dtd"
   xmlns:inkscape="http://www.inkscape.org/namespaces/inkscape"
   width="440"
   height="280"
   id="svg2"
   version="1.1"
   inkscape:version="0.48.5 r10040"
   sodipodi:docname="kontobuch-tile.svg"
   inkscape:export-filename="/home/marko/docs/dev/finances-kontobuch/icons/kontobuch-icon-128.png"
   inkscape:export-xdpi="162.56"
   inkscape:export-ydpi="162.56">
  <defs
     id="defs4">
    <filter
       inkscape:collect="always"
       id="filter4076"
       color-interpolation-filters="sRGB">
      <feGaussianBlur
         inkscape:collect="always"
         stdDeviation="1.0219669"
         id="feGaussianBlur4078" />
    </filter>
  </defs>
  <sodipodi:namedview
     id="base"
     pagecolor="#ffffff"
     bordercolor="#666666"
     borderopacity="1.0"
     inkscape:pageopacity="0.0"
     inkscape:pageshadow="2"
     inkscape:zoom="1.4"
     inkscape:cx="220.12022"
     inkscape:cy="144.22541"
     inkscape:document-units="px"
     inkscape:current-layer="layer1"
     showgrid="false"
     units="px"
     inkscape:object-nodes="true"
     inkscape:snap-global="false"
     inkscape:snap-smooth-nodes="false"
     inkscape:object-paths="false"
     inkscape:window-width="1366"
     inkscape:window-height="702"
     inkscape:window-x="0"
     inkscape:window-y="27"
     inkscape:window-maximized="1" />
  <metadata
     id="metadata7">
    <rdf:RDF>
      <cc:Work
         rdf:about="">
        <dc:format>image/svg+xml</dc:format>
        <dc:type
           rdf:resource="http://purl.org/dc/dcmitype/StillImage" />
        <dc:title></dc:title>
      </cc:Work>
    </rdf:RDF>
  </metadata>
  <g
     inkscape:label="Ebene 1"
     inkscape:groupmode="layer"
     id="layer1"
     transform="translate(0,-772.36091)">
    <rect
       style="fill:#3f51b5;fill-opacity:1;stroke:none"
       id="rect4145"
       width="443.57144"
       height="282.85715"
       x="-0.71428573"
       y="-1.4285717"
       transform="translate(0,772.36091)" />
    <g
       id="g4125"
       transform="matrix(0.60843492,0,0,0.60843492,118.75684,399.59129)">
      <path
         transform="matrix(5.1602574,0,0,5.1602574,-25.928325,-4338.9231)"
         inkscape:connector-curvature="0"
         id="rect3839-4"
         d="m 8.4129111,995.09327 a 0.96586927,0.96586927 0 0 0 -0.8437501,0.9687 l 0.34375,44.40633 a 0.96586927,0.96586927 0 0 0 1.0937501,0.9687 l 19.1562499,-2.6875 a 0.96586927,0.96586927 0 0 0 0.84375,-0.9687 l 0,-1.8125 0.875,0 0,2.1875 0,0.8437 0.90625,0 31.59375,0 0.90625,0 0,-0.8437 0.125,-12.8125 -0.125,-0.094 0,-25.56251 c 0,-0.47822 -0.404944,-0.84372 -0.90625,-0.84372 l -31.59375,0 c -0.241012,0 -0.431902,0.1044 -0.59375,0.25 l -0.03125,0 -0.28125,-0.25 0,0.84372 0,2.18751 -0.875,0 0,-2.37501 a 0.96586927,0.96586927 0 0 0 -0.8125,-0.93752 l -19.4999999,-3.4375 a 0.96586927,0.96586927 0 0 0 -0.28125,-0.031 z m 20.5937499,8.87503 0.875,0 0,5.9062 -0.875,0 0,-5.9062 z m 0,8 0.875,0 0,5.9062 -0.875,0 0,-5.9062 z m 0,8 0.875,0 0,5.9062 -0.875,0 0,-5.9062 z m 0,8 0.875,0 0,5.9062 -0.875,0 0,-5.9062 z"
         style="fill:#000000;fill-opacity:0.15666665;stroke:none;filter:url(#filter4076)" />
      <rect
         ry="4.4543848"
         rx="4.669435"
         y="812.3233"
         x="129.91267"
         height="207.33176"
         width="172.31573"
         id="rect3839"
         style="fill:#795548;fill-opacity:1;stroke:none" />
      <path
         transform="matrix(5.1602574,0,0,5.1602574,-25.928325,-4340.7661)"
         d="M 8.71875,994.875 A 0.96586927,0.96586927 0 0 0 7.875,995.84375 L 8.21875,1040.25 a 0.96586927,0.96586927 0 0 0 1.09375,0.9688 l 19.15625,-2.6876 a 0.96586927,0.96586927 0 0 0 0.84375,-0.9687 l 0,-38.28125 A 0.96586927,0.96586927 0 0 0 28.5,998.34375 L 9,994.90625 A 0.96586927,0.96586927 0 0 0 8.71875,994.875 z"
         id="path4016"
         style="fill:#6d4c41;fill-opacity:1;stroke:none"
         inkscape:original="M 8.84375 995.84375 L 9.1875 1040.25 L 28.34375 1037.5625 L 28.34375 999.28125 L 8.84375 995.84375 z "
         inkscape:radius="0.96577269"
         sodipodi:type="inkscape:offset" />
      <rect
         ry="1.2286749"
         rx="0.5524838"
         y="817.16803"
         x="135.17026"
         height="195.39426"
         width="159.1981"
         id="rect3952"
         style="fill:#f5f5f5;fill-opacity:1;stroke:none" />
      <g
         transform="matrix(5.1602574,0,0,5.1602574,-25.928325,-4338.9231)"
         id="g4080">
        <rect
           style="fill:#9e9e9e;fill-opacity:1;stroke:none"
           id="rect3841"
           width="5.9937453"
           height="2.1085021"
           x="26.844362"
           y="1001.2849"
           rx="0.79080617"
           ry="1.0187528" />
        <rect
           style="fill:#9e9e9e;fill-opacity:1;stroke:none"
           id="rect3841-0"
           width="5.9937453"
           height="2.1085021"
           x="26.873329"
           y="1009.2977"
           rx="0.79080617"
           ry="1.0187528" />
        <rect
           ry="1.0187528"
           rx="0.79080617"
           y="1017.2977"
           x="26.873329"
           height="2.1085021"
           width="5.9937453"
           id="rect3885"
           style="fill:#9e9e9e;fill-opacity:1;stroke:none" />
        <rect
           style="fill:#9e9e9e;fill-opacity:1;stroke:none"
           id="rect3887"
           width="5.9937453"
           height="2.1085021"
           x="26.873329"
           y="1025.2976"
           rx="0.79080617"
           ry="1.0187528" />
        <rect
           ry="1.0187528"
           rx="0.79080617"
           y="1033.2977"
           x="26.873329"
           height="2.1085021"
           width="5.9937453"
           id="rect3889"
           style="fill:#9e9e9e;fill-opacity:1;stroke:none" />
      </g>
      <rect
         ry="3.3681033"
         rx="3.7227097"
         y="837.18567"
         x="148.21709"
         height="6.9709282"
         width="131.9243"
         id="rect3841-1"
         style="fill:#bdbdbd;fill-opacity:1;stroke:none" />
      <rect
         style="fill:#bdbdbd;fill-opacity:1;stroke:none"
         id="rect4004"
         width="131.9243"
         height="6.9709282"
         x="148.21709"
         y="857.82666"
         rx="3.7227097"
         ry="3.3681033" />
      <rect
         ry="3.3681033"
         rx="3.7227097"
         y="878.46771"
         x="148.21709"
         height="6.9709282"
         width="131.9243"
         id="rect4006"
         style="fill:#bdbdbd;fill-opacity:1;stroke:none" />
      <rect
         style="fill:#bdbdbd;fill-opacity:1;stroke:none"
         id="rect4008"
         width="131.9243"
         height="6.9709282"
         x="148.21709"
         y="899.1087"
         rx="3.7227097"
         ry="3.3681033" />
      <path
         inkscape:connector-curvature="0"
         id="path4010"
         d="m 157.81749,968.38095 24.10849,-13.68286 45.61066,28.01763 44.95908,-43.65577"
         style="fill:none;stroke:#8bc34a;stroke-width:5.16025734;stroke-linecap:round;stroke-linejoin:round;stroke-miterlimit:4;stroke-opacity:1;stroke-dasharray:none" />
      <path
         sodipodi:nodetypes="ccccc"
         inkscape:connector-curvature="0"
         id="path4012"
         d="m 129.91267,1019.6554 172.31574,0 0.65158,-70.4956 -172.96732,-136.8365 z"
         style="fill:#000000;fill-opacity:0.03333333;stroke:none" />
    </g>
    <flowRoot
       xml:space="preserve"
       id="flowRoot4147"
       style="font-size:40px;font-style:normal;font-weight:normal;line-height:125%;letter-spacing:0px;word-spacing:0px;fill:#f5f5f5;fill-opacity:1;stroke:none;font-family:Sans"
       transform="translate(44.285714,786.64663)"><flowRegion
         id="flowRegion4149"><rect
           id="rect4151"
           width="432.85715"
           height="110"
           x="4.2857141"
           y="2.8571424"
           style="fill:#f5f5f5;fill-opacity:1" /></flowRegion><flowPara
         id="flowPara4153"
         style="font-size:64px;fill:#f5f5f5;fill-opacity:1">Kontobuch</flowPara></flowRoot>  </g>
</svg>
