<?xml version="1.0" encoding="UTF-8" standalone="no"?>
<!-- Created with Inkscape (http://www.inkscape.org/) -->

<svg
   xmlns:dc="http://purl.org/dc/elements/1.1/"
   xmlns:cc="http://creativecommons.org/ns#"
   xmlns:rdf="http://www.w3.org/1999/02/22-rdf-syntax-ns#"
   xmlns:svg="http://www.w3.org/2000/svg"
   xmlns="http://www.w3.org/2000/svg"
   xmlns:sodipodi="http://sodipodi.sourceforge.net/DTD/sodipodi-0.dtd"
   xmlns:inkscape="http://www.inkscape.org/namespaces/inkscape"
   width="70.866142"
   height="70.866142"
   id="svg2"
   version="1.1"
   inkscape:version="0.48.5 r10040"
   sodipodi:docname="kontobuch-icon.svg"
   inkscape:export-filename="/home/marko/docs/dev/finances-kontobuch/icons/kontobuch-icon-48.png"
   inkscape:export-xdpi="60.959999"
   inkscape:export-ydpi="60.959999">
  <defs
     id="defs4">
    <filter
       inkscape:collect="always"
       id="filter4076">
      <feGaussianBlur
         inkscape:collect="always"
         stdDeviation="1.0219669"
         id="feGaussianBlur4078" />
    </filter>
  </defs>
  <sodipodi:namedview
     id="base"
     pagecolor="#ffffff"
     bordercolor="#666666"
     borderopacity="1.0"
     inkscape:pageopacity="0.0"
     inkscape:pageshadow="2"
     inkscape:zoom="3.959798"
     inkscape:cx="35.65593"
     inkscape:cy="38.332549"
     inkscape:document-units="px"
     inkscape:current-layer="layer1"
     showgrid="false"
     units="cm"
     inkscape:object-nodes="true"
     inkscape:snap-global="false"
     inkscape:snap-smooth-nodes="false"
     inkscape:object-paths="false"
     inkscape:window-width="1366"
     inkscape:window-height="702"
     inkscape:window-x="0"
     inkscape:window-y="27"
     inkscape:window-maximized="1" />
  <metadata
     id="metadata7">
    <rdf:RDF>
      <cc:Work
         rdf:about="">
        <dc:format>image/svg+xml</dc:format>
        <dc:type
           rdf:resource="http://purl.org/dc/dcmitype/StillImage" />
        <dc:title></dc:title>
      </cc:Work>
    </rdf:RDF>
  </metadata>
  <g
     inkscape:label="Ebene 1"
     inkscape:groupmode="layer"
     id="layer1"
     transform="translate(0,-981.49473)">
    <path
       style="fill:#000000;fill-opacity:0.25666665;stroke:none;filter:url(#filter4076)"
       d="m 8.4129111,995.09327 a 0.96586927,0.96586927 0 0 0 -0.8437501,0.9687 l 0.34375,44.40633 a 0.96586927,0.96586927 0 0 0 1.0937501,0.9687 l 19.1562499,-2.6875 a 0.96586927,0.96586927 0 0 0 0.84375,-0.9687 l 0,-1.8125 0.875,0 0,2.1875 0,0.8437 0.90625,0 31.59375,0 0.90625,0 0,-0.8437 0.125,-12.8125 -0.125,-0.094 0,-25.56251 c 0,-0.47822 -0.404944,-0.84372 -0.90625,-0.84372 l -31.59375,0 c -0.241012,0 -0.431902,0.1044 -0.59375,0.25 l -0.03125,0 -0.28125,-0.25 0,0.84372 0,2.18751 -0.875,0 0,-2.37501 a 0.96586927,0.96586927 0 0 0 -0.8125,-0.93752 l -19.4999999,-3.4375 a 0.96586927,0.96586927 0 0 0 -0.28125,-0.031 z m 20.5937499,8.87503 0.875,0 0,5.9062 -0.875,0 0,-5.9062 z m 0,8 0.875,0 0,5.9062 -0.875,0 0,-5.9062 z m 0,8 0.875,0 0,5.9062 -0.875,0 0,-5.9062 z m 0,8 0.875,0 0,5.9062 -0.875,0 0,-5.9062 z"
       id="rect3839-4"
       inkscape:connector-curvature="0"
       transform="matrix(1.1469742,0,0,1.1469742,-5.3948333,-149.46387)" />
    <rect
       style="fill:#795548;fill-opacity:1;stroke:none"
       id="rect3839"
       width="38.300743"
       height="46.083782"
       x="29.244061"
       y="995.50745"
       rx="1.0378788"
       ry="0.9900794" />
    <path
       sodipodi:type="inkscape:offset"
       inkscape:radius="0.96577269"
       inkscape:original="M 8.84375 995.84375 L 9.1875 1040.25 L 28.34375 1037.5625 L 28.34375 999.28125 L 8.84375 995.84375 z "
       style="fill:#6d4c41;fill-opacity:1;stroke:none"
       id="path4016"
       d="M 8.71875,994.875 A 0.96586927,0.96586927 0 0 0 7.875,995.84375 L 8.21875,1040.25 a 0.96586927,0.96586927 0 0 0 1.09375,0.9688 l 19.15625,-2.6876 a 0.96586927,0.96586927 0 0 0 0.84375,-0.9687 l 0,-38.28125 A 0.96586927,0.96586927 0 0 0 28.5,998.34375 L 9,994.90625 A 0.96586927,0.96586927 0 0 0 8.71875,994.875 z"
       transform="matrix(1.1469742,0,0,1.1469742,-5.3948333,-149.8735)" />
    <rect
       style="fill:#f5f5f5;fill-opacity:1;stroke:none"
       id="rect3952"
       width="35.385078"
       height="43.430424"
       x="30.412666"
       y="996.58429"
       rx="0.12280098"
       ry="0.27309847" />
    <g
       id="g4080"
       transform="matrix(1.1469742,0,0,1.1469742,-5.3948333,-149.46387)">
      <rect
         ry="1.0187528"
         rx="0.79080617"
         y="1001.2849"
         x="26.844362"
         height="2.1085021"
         width="5.9937453"
         id="rect3841"
         style="fill:#9e9e9e;fill-opacity:1;stroke:none" />
      <rect
         ry="1.0187528"
         rx="0.79080617"
         y="1009.2977"
         x="26.873329"
         height="2.1085021"
         width="5.9937453"
         id="rect3841-0"
         style="fill:#9e9e9e;fill-opacity:1;stroke:none" />
      <rect
         style="fill:#9e9e9e;fill-opacity:1;stroke:none"
         id="rect3885"
         width="5.9937453"
         height="2.1085021"
         x="26.873329"
         y="1017.2977"
         rx="0.79080617"
         ry="1.0187528" />
      <rect
         ry="1.0187528"
         rx="0.79080617"
         y="1025.2976"
         x="26.873329"
         height="2.1085021"
         width="5.9937453"
         id="rect3887"
         style="fill:#9e9e9e;fill-opacity:1;stroke:none" />
      <rect
         style="fill:#9e9e9e;fill-opacity:1;stroke:none"
         id="rect3889"
         width="5.9937453"
         height="2.1085021"
         x="26.873329"
         y="1033.2977"
         rx="0.79080617"
         ry="1.0187528" />
    </g>
    <rect
       style="fill:#bdbdbd;fill-opacity:1;stroke:none"
       id="rect3841-1"
       width="29.322912"
       height="1.5494334"
       x="33.312595"
       y="1001.0336"
       rx="0.82744938"
       ry="0.74863076" />
    <rect
       ry="0.74863076"
       rx="0.82744938"
       y="1005.6215"
       x="33.312595"
       height="1.5494334"
       width="29.322912"
       id="rect4004"
       style="fill:#bdbdbd;fill-opacity:1;stroke:none" />
    <rect
       style="fill:#bdbdbd;fill-opacity:1;stroke:none"
       id="rect4006"
       width="29.322912"
       height="1.5494334"
       x="33.312595"
       y="1010.2094"
       rx="0.82744938"
       ry="0.74863076" />
    <rect
       ry="0.74863076"
       rx="0.82744938"
       y="1014.7973"
       x="33.312595"
       height="1.5494334"
       width="29.322912"
       id="rect4008"
       style="fill:#bdbdbd;fill-opacity:1;stroke:none" />
    <path
       style="fill:none;stroke:#8bc34a;stroke-width:1.14697421;stroke-linecap:round;stroke-linejoin:round;stroke-miterlimit:4;stroke-opacity:1;stroke-dasharray:none"
       d="m 35.446483,1030.1945 5.358613,-3.0413 10.137915,6.2275 9.993087,-9.7034"
       id="path4010"
       inkscape:connector-curvature="0" />
    <path
       style="fill:#000000;fill-opacity:0.03333333;stroke:none"
       d="m 29.244059,1041.5913 38.300745,0 0.144827,-15.6691 -38.445572,-30.41475 z"
       id="path4012"
       inkscape:connector-curvature="0"
       sodipodi:nodetypes="ccccc" />
  </g>
</svg>
